# AST/ASF file generated using VICON BodyLanguage
# -----------------------------------------------
:version 1.10
:name VICON
:units
  mass 1.0
  length 0.45
  angle deg
:documentation
   .ast/.asf automatically generated from VICON data using
   VICON BodyBuilder and BodyLanguage model FoxedUp or BRILLIANT.MOD
:root
   order TX TY TZ RX RY RZ
   axis XYZ
   position 0 0 0  
   orientation 0 0 0 
:bonedata
  begin
     id 1 
     name lhipjoint
     direction 0.625129 -0.738222 0.253461 
     length 2.5165 
     axis 0 0 0  XYZ
  end
  begin
     id 2 
     name lfemur
     direction 0.34202 -0.939693 0  
     length 7.54288  
     axis 0 0 20  XYZ
    dof rx ry rz
    limits (-160.0 20.0)
           (-70.0 70.0)
           (-60.0 70.0)
  end
  begin
     id 3 
     name ltibia
     direction 0.34202 -0.939693 0   
     length 7.71864   
     axis 0 0 20   XYZ
    dof rx
    limits (-10.0 170.0)
  end
  begin
     id 4 
     name lfoot
     direction 0.0772037 -0.212115 0.97419   
     length 2.18429   
     axis -90 7.62852e-016 20   XYZ
    dof rx rz
    limits (-45.0 90.0)
           (-70.0 20.0)
  end
  begin
     id 5 
     name ltoes
     direction 1.53513e-011 -4.21834e-011 1   
     length 1.09718   
     axis -90 7.62852e-016 20   XYZ
    dof rx
    limits (-90.0 20.0)
  end
  begin
     id 6 
     name rhipjoint
     direction -0.621946 -0.740623 0.254285   
     length 2.50835  
     axis 0 0 0  XYZ 
  end
  begin
     id 7 
     name rfemur
     direction -0.34202 -0.939693 0   
     length 7.43366   
     axis 0 0 -20   XYZ
    dof rx ry rz
    limits (-160.0 20.0)
           (-70.0 70.0)
           (-70.0 60.0)
  end
  begin
     id 8 
     name rtibia
     direction -0.34202 -0.939693 0   
     length 7.77122   
     axis 0 0 -20   XYZ
    dof rx
    limits (-10.0 170.0)
 end
 begin
     id 9 
     name rfoot
     direction -0.082694 -0.2272 0.970331   
     length 2.2293  
     axis -90 -7.62852e-016 -20   XYZ
    dof rx rz
    limits (-45.0 90.0)
           (-20.0 70.0)
  end
  begin
     id 10 
     name rtoes
     direction -1.53565e-011 -4.21695e-011 1   
     length 1.1178   
     axis -90 -7.62852e-016 -20   XYZ
    dof rx
    limits (-90.0 20.0)
  end
  begin
     id 11 
     name lowerback
     direction -0.000695208 0.988391 -0.151929   
     length 1.95077   
     axis 0 0 0   XYZ
    dof rx ry rz
    limits (-20.0 45.0)
           (-30.0 30.0)
           (-30.0 30.0)
  end
  begin
     id 12 
     name upperback
     direction -0.00268925 0.999885 -0.0149203   
     length 1.96246   
     axis 0 0 0   XYZ
    dof rx ry rz
    limits (-20.0 45.0)
           (-30.0 30.0)
           (-30.0 30.0)
  end
  begin
     id 13 
     name thorax
     direction -0.000848408 0.998481 0.0550912   
     length 2.00867   
     axis 0 0 0   XYZ
    dof rx ry rz
    limits (-20.0 45.0)
           (-30.0 30.0)
           (-30.0 30.0)
  end
  begin
     id 14 
     name lowerneck
     direction -0.00577709 0.998999 0.0443608   
     length 1.75762   
     axis 0 0 0   XYZ
    dof rx ry rz
    limits (-20.0 45.0)
           (-30.0 30.0)
           (-30.0 30.0)
  end
  begin
     id 15 
     name upperneck
     direction 0.0320945 0.999136 0.0264105   
     length 1.72601   
     axis 0 0 0   XYZ
    dof rx ry rz
    limits (-20.0 45.0)
           (-30.0 30.0)
           (-30.0 30.0)
  end
  begin
     id 16
     name head
     direction 0.0120552 0.999916 0.00480151  
     length 1.79973  
     axis 0 0 0   XYZ
    dof rx ry rz
    limits (-20.0 45.0)
           (-30.0 30.0)
           (-30.0 30.0)
  end
  begin
     id 17 
     name lclavicle
     direction 0.909 0.371533 -0.188897  
     length 3.47956  
     axis 0 0 0   XYZ
    dof ry rz
    limits (-20.0 10.0)
           (0.0 20.0)
  end
  begin
     id 18 
     name lhumerus
     direction 1 -4.48963e-011 -6.48352e-028   
     length 5.52302   
     axis 180 -30 -90   XYZ
    dof rx ry rz
    limits (-60.0 90.0)
           (-90.0 90.0)
           (-90.0 90.0)
  end
  begin
     id 19
     name lradius
     direction 1 -4.48968e-011 -4.78536e-027   
     length 3.58675   
     axis 180 -30 -90   XYZ
    dof rx
    limits (-10.0 170.0)
  end
  begin
     id 20
     name lwrist
     direction 1 -4.48942e-011 -9.9435e-027   
     length 1.79337   
     axis 8.54312e-015 90 90   XYZ
    dof ry
    limits (-180.0 0.0)
 end
  begin
     id 21 
     name lhand
     direction 1 -4.4904e-011 -1.9887e-026   
     length 0.536412   
     axis 1.26896e-014 90 90   XYZ
    dof rx rz
    limits (-90.0 90.0)
           (-45.0 45.0)
  end
  begin
     id 22 
     name lfingers
     direction 1 -4.48893e-011 -3.9774e-026   
     length 0.432469   
     axis 2.53792e-014 90 90   XYZ
    dof rx
    limits (0.0 90.0)
  end
  begin
     id 23
     name lthumb
     direction 0.707107 -6.34934e-011 0.707107   
     length 0.620942   
     axis -90 45 2.85299e-015   XYZ
    dof rx rz
    limits (-45.0 45.0)
           (-45.0 45.0)
  end
  begin
     id 24 
     name rclavicle
     direction -0.89595 0.416672 -0.153813   
     length 3.44099  
     axis 0 0 0   XYZ 
    dof ry rz
    limits (-10.0 20.0)
           (-20.0 0.0)
  end
  begin
     id 25 
     name rhumerus
     direction -1 -4.48952e-011 5.57804e-028  
     length 5.8478   
     axis 180 30 90   XYZ
    dof rx ry rz
    limits (-90.0 60.0)
           (-90.0 90.0)
           (-90.0 90.0)
  end
  begin
     id 26 
     name rradius
     direction -1 -4.48967e-011 -7.93646e-027   
     length 3.62717   
     axis 180 30 90   XYZ
    dof rx
    limits (-10.0 170.0)
  end
  begin
     id 27 
     name rwrist
     direction -1 -4.49008e-011 -9.9435e-027   
     length 1.81359   
     axis 8.54312e-015 -90 -90   XYZ
    dof ry
    limits (-180.0 0.0)
  end
  begin
     id 28
     name rhand
     direction -1 -4.48812e-011 -1.9887e-026   
     length 0.650516   
     axis 1.26896e-014 -90 -90   XYZ
    dof rx rz
    limits (-90.0 90.0)
           (-45.0 45.0)
  end
  begin
     id 29
     name rfingers
     direction -1 -4.49228e-011 -3.9774e-026   
     length 0.524463   
     axis 2.53792e-014 -90 -90   XYZ
    dof rx
    limits (0.0 90.0)
  end
  begin
     id 30
     name rthumb
     direction -0.707107 -6.34912e-011 0.707107   
     length 0.753027   
     axis -90 -45 -2.85299e-015   XYZ
    dof rx rz
    limits (-45.0 45.0)
           (-45.0 45.0)
  end
:hierarchy
  begin
    root lhipjoint rhipjoint lowerback
    lhipjoint lfemur
    lfemur ltibia
    ltibia lfoot
    lfoot ltoes
    rhipjoint rfemur
    rfemur rtibia
    rtibia rfoot
    rfoot rtoes
    lowerback upperback
    upperback thorax
    thorax lowerneck lclavicle rclavicle
    lowerneck upperneck
    upperneck head
    lclavicle lhumerus
    lhumerus lradius
    lradius lwrist
    lwrist lhand lthumb
    lhand lfingers
    rclavicle rhumerus
    rhumerus rradius
    rradius rwrist
    rwrist rhand rthumb
    rhand rfingers
  end

#!OML:ASF F:\VICON\USERDATA\INSTALL\rory3\rory3.ASF
:FULLY-SPECIFIED
:DEGREES
720
root 14.5678 18.2185 22.1624 -180.518 -4.73235 -177.759
lowerback 8.91598 -1.71774 3.21038
upperback 1.14161 -2.04976 0.871931
thorax -3.89021 -1.10538 -0.646814
lowerneck -3.24968 -3.28621 -0.0126017
upperneck 17.6591 -3.66543 0.804233
head 5.88148 -1.33301 0.0758551
rclavicle 1.67973e-014 3.57812e-015
rhumerus -34.1809 -13.9328 -74.5829
rradius 19.6212
rwrist 23.1075
rhand -17.3316 13.9647
rfingers 7.12502
rthumb 8.9154 -15.8269
lclavicle 1.67973e-014 3.57812e-015
lhumerus -24.0592 9.92177 80.1268
lradius 18.636
lwrist 2.15945
lhand -29.7291 35.9611
lfingers 7.12502
lthumb -3.05584 65.9189
rfemur -10.5417 9.33384 26.883
rtibia 24.0317
rfoot -6.10761 -9.35059
rtoes 2.89448
lfemur -9.55648 3.39614 -15.859
ltibia 63.6146
lfoot 9.83854 1.1646
ltoes -15.8024
721
root 14.5688 18.1928 22.0208 -180.64 -4.51564 -177.755
lowerback 9.01377 -1.58449 3.33778
upperback 1.16933 -1.8612 0.779369
thorax -3.91596 -1.01484 -0.835321
lowerneck -3.24852 -1.94874 0.15435
upperneck 17.7663 -3.96848 1.09025
head 5.92255 -2.26888 0.0339429
rclavicle -2.99171e-014 2.33572e-014
rhumerus -34.0407 -13.9288 -74.6666
rradius 19.9152
rwrist 23.4802
rhand -17.6478 13.9684
rfingers 7.12502
rthumb 8.61024 -15.836
lclavicle -2.99171e-014 2.33572e-014
lhumerus -24.1995 9.49398 80.0918
lradius 17.4276
lwrist 2.9784
lhand -30.0384 30.6544
lfingers 7.12502
lthumb -3.35452 60.6078
rfemur -9.6047 9.17241 27.0914
rtibia 24.0471
rfoot -6.56214 -9.1454
rtoes 1.49006
lfemur -10.7634 3.70564 -15.9037
ltibia 64.598
lfoot 9.11664 1.83302
ltoes -14.487
722
root 14.5683 18.193 21.8733 -180.744 -4.20444 -177.376
lowerback 9.1647 -1.43764 3.87105
upperback 1.18571 -1.61248 0.802143
thorax -3.98635 -0.903131 -1.13813
lowerneck -3.84635 -1.75282 0.170172
upperneck 18.4953 -3.81553 1.34781
head 6.26091 -2.18244 0.102333
rclavicle -1.46914e-014 2.98177e-016
rhumerus -33.7576 -13.9402 -74.743
rradius 20.1827
rwrist 23.7534
rhand -17.3498 13.2378
rfingers 7.12502
rthumb 8.89784 -16.5546
lclavicle -1.46914e-014 2.98177e-016
lhumerus -24.4051 9.07071 80.0702
lradius 16.8956
lwrist 3.7512
lhand -31.5963 -22.6701
lfingers 7.12502
lthumb -4.85894 7.25414
rfemur -8.97125 9.11228 27.6548
rtibia 24.0521
rfoot -7.10356 -8.92844
rtoes 1.32149
lfemur -11.9886 4.11455 -15.5194
ltibia 65.4312
lfoot 6.78971 2.18145
ltoes -17.8537
723
root 14.5705 18.2379 21.7209 -180.82 -3.96501 -176.998
lowerback 9.30623 -1.35906 4.33488
upperback 1.12978 -1.45337 0.844056
thorax -4.12574 -0.835463 -1.37074
lowerneck -3.82717 -1.68269 0.0398973
upperneck 18.7955 -3.81592 1.65762
head 6.36164 -2.1832 0.217552
rclavicle -5.59082e-015 -4.96962e-015
rhumerus -33.4682 -13.7835 -74.926
rradius 20.4801
rwrist 23.7805
rhand -16.8978 12.7579
rfingers 7.12502
rthumb 9.33398 -17.0154
lclavicle -5.59082e-015 -4.96962e-015
lhumerus -24.8926 8.77581 80.0101
lradius 17.0203
lwrist 4.46463
lhand -33.3156 22.2326
lfingers 7.12502
lthumb -6.51889 52.1123
rfemur -8.97696 9.20713 28.1713
rtibia 24.2711
rfoot -7.20355 -8.82008
rtoes 1.91453
lfemur -13.0412 4.36989 -15.1446
ltibia 65.7685
lfoot 6.28207 2.71506
ltoes -14.7413
724
root 14.5709 18.2212 21.5798 -180.753 -3.67574 -177.127
lowerback 9.13172 -1.23829 4.173
upperback 1.24081 -1.32613 0.782543
thorax -3.90311 -0.765958 -1.36574
lowerneck -3.81396 -1.69649 0.156273
upperneck 18.7506 -3.82999 1.59934
head 6.34214 -2.18489 0.179671
rclavicle 1.93194e-015 2.03754e-015
rhumerus -32.8977 -13.3994 -75.2732
rradius 20.9554
rwrist 23.5605
rhand -16.9897 12.9719
rfingers 7.12502
rthumb 9.24524 -16.8054
lclavicle 1.93194e-015 2.03754e-015
lhumerus -25.1926 8.61247 79.9823
lradius 17.5591
lwrist 5.03115
lhand -31.8155 35.8855
lfingers 7.12502
lthumb -5.0706 65.8048
rfemur -8.36617 8.85251 28.1844
rtibia 24.4252
rfoot -7.66868 -8.50061
rtoes 0.0585405
lfemur -14.3402 4.6277 -15.4159
ltibia 66.204
lfoot 5.44798 3.05179
ltoes -13.7463
725
root 14.5768 18.2485 21.4287 -180.668 -3.3726 -177.387
lowerback 9.13576 -1.09167 3.87342
upperback 1.25273 -1.16114 0.676451
thorax -3.88036 -0.678318 -1.32893
lowerneck -3.64502 -1.71802 0.346786
upperneck 18.5086 -3.81211 1.39899
head 6.22844 -2.17367 0.0918664
rclavicle 2.21272e-014 -9.69075e-015
rhumerus -32.4458 -13.1767 -75.5168
rradius 21.3569
rwrist 23.6028
rhand -16.9059 12.782
rfingers 7.12502
rthumb 9.32609 -16.9917
lclavicle 2.21272e-014 -9.69075e-015
lhumerus -25.4602 8.35663 79.9672
lradius 17.8225
lwrist 5.46618
lhand -31.3255 41.3468
lfingers 7.12502
lthumb -4.59748 71.2769
rfemur -8.46455 9.17597 28.0177
rtibia 24.8586
rfoot -7.76858 -8.64566
rtoes -0.936547
lfemur -15.4219 4.81877 -15.8053
ltibia 66.1061
lfoot 4.37104 3.35556
ltoes -14.3358
726
root 14.5752 18.1721 21.3013 -180.701 -3.05159 -177.455
lowerback 9.36842 -0.978191 3.81744
upperback 1.10585 -0.99501 0.640772
thorax -4.15446 -0.59852 -1.35042
lowerneck -3.26025 -1.79387 0.276337
upperneck 18.3925 -3.9067 1.32628
head 6.12517 -2.23983 0.0816506
rclavicle -1.26353e-014 1.04362e-014
rhumerus -32.4106 -12.3392 -75.8421
rradius 22.0705
rwrist 22.8423
rhand -16.6834 12.3897
rfingers 7.12502
rthumb 9.54086 -17.3743
lclavicle -1.26353e-014 1.04362e-014
lhumerus -26.0974 8.11345 79.919
lradius 17.8853
lwrist 5.90674
lhand -31.4119 42.4453
lfingers 7.12502
lthumb -4.68084 72.3736
rfemur -7.14044 8.95921 28.0857
rtibia 25.0249
rfoot -8.93942 -8.44462
rtoes -4.08815
lfemur -16.7597 4.88542 -15.9875
ltibia 66.5169
lfoot 2.87211 3.70981
ltoes -13.3576
